<svg width="580" height="600" viewBox="0 0 580 600" fill="none" xmlns="http://www.w3.org/2000/svg">
<path d="M531.449 498.35H47.6979C45.0657 498.35 43.0184 496.326 42.7259 494.012C28.3947 330.884 14.3559 168.045 0.0247357 5.20621C-0.267738 2.31387 2.07205 0 4.99679 0H575.028C577.953 0 580 2.31387 580 5.20621C565.669 168.045 551.045 330.884 536.714 493.723C536.129 496.326 534.082 498.35 531.449 498.35Z" fill="#00C8CC"/>
<path d="M491.088 387.863C491.673 384.681 490.503 382.078 490.21 379.186C489.918 376.583 489.333 374.269 489.333 371.666C489.04 369.063 488.455 366.749 487.578 364.435C486.993 362.41 486.408 360.096 485.531 358.072C484.653 356.047 484.068 353.733 482.898 351.998C480.851 349.106 479.096 345.635 477.341 342.453C476.757 341.296 475.587 340.139 475.002 338.982C473.832 336.958 472.954 334.933 471.2 333.198C470.907 332.908 470.907 332.908 470.615 332.619C469.737 330.595 468.275 328.57 466.812 327.124C464.765 324.81 463.303 322.496 460.963 320.471C459.501 319.025 458.331 317.29 456.868 315.554C456.576 314.976 455.698 315.265 455.698 314.687C454.821 312.662 452.774 311.505 451.019 310.348C450.434 310.059 449.849 310.059 449.264 309.77C447.509 307.456 445.169 306.299 442.83 304.563C441.952 303.985 441.075 303.696 440.49 304.274C439.612 304.853 440.49 305.72 440.782 306.299C442.245 308.324 443.415 310.059 444.877 311.794C445.754 312.951 444.877 315.554 443.415 316.133C441.66 316.711 439.612 317.001 438.442 318.447C438.15 318.736 437.858 318.736 437.565 319.025C434.933 320.182 432.301 321.339 429.668 322.496C427.913 323.364 426.744 324.521 424.989 325.388C422.649 326.545 420.309 327.702 418.262 328.859C415.922 330.305 413.582 331.751 410.95 332.908C410.365 333.198 409.78 332.908 409.195 333.198C405.978 335.222 402.468 336.09 399.251 338.404C397.789 339.561 396.034 340.139 394.571 340.718C392.817 341.585 391.354 342.453 389.892 343.032C387.845 343.899 385.797 345.056 383.75 346.213C381.703 347.37 379.363 348.238 377.315 349.684C376.146 350.262 374.976 350.552 373.806 351.13C372.343 351.998 371.174 352.866 370.004 353.733C366.494 355.469 363.277 357.204 360.06 359.518C358.89 360.386 357.135 360.386 355.965 361.543C355.965 361.543 355.672 361.543 355.38 361.543C353.918 361.543 352.455 362.41 351.285 362.989C350.7 363.278 350.115 363.856 349.53 364.146C348.068 364.724 346.606 365.592 345.143 366.46C343.681 367.616 341.926 368.195 340.464 369.063C339.001 369.93 337.539 370.798 335.784 371.377C334.614 371.955 334.322 371.666 334.029 370.509C333.152 368.484 332.567 366.46 331.397 364.724C330.52 363.278 329.642 361.832 329.642 360.096C329.642 359.518 329.35 358.361 328.765 357.783C327.01 355.469 327.01 352.576 325.84 350.262C324.963 348.816 324.963 347.37 324.085 345.924C322.915 343.899 322.623 341.875 321.161 339.85C320.868 339.272 320.576 338.404 319.991 338.115C319.113 337.825 318.236 337.247 317.358 337.247C315.311 337.247 312.971 336.958 311.216 338.982C310.631 339.85 309.754 340.429 308.877 340.718C308.292 341.007 307.707 340.139 307.122 339.85C306.829 339.85 306.829 339.561 306.537 339.561C304.49 338.982 303.32 337.536 303.612 335.801C303.612 333.198 303.905 330.884 303.027 328.281C302.735 327.124 302.442 325.678 301.565 324.81C300.98 323.942 300.102 323.074 298.933 323.364C296.593 323.942 294.838 325.099 293.083 326.834C291.036 329.148 288.403 330.884 286.064 332.908C284.309 334.065 282.262 334.644 280.507 336.09C279.629 336.958 278.752 337.536 277.874 338.115C276.705 338.982 275.242 339.561 274.072 340.718C273.487 341.296 272.902 341.296 272.317 340.718C271.732 339.85 271.732 338.404 272.317 337.536C272.902 336.958 273.487 336.09 273.487 335.222C273.78 332.908 274.657 330.884 275.827 329.148C277.582 326.545 278.459 323.653 279.922 321.05C280.507 319.893 281.092 318.447 281.677 317.29C282.262 316.422 283.139 315.554 283.139 314.397C283.139 314.108 283.431 313.819 283.724 313.819C284.601 313.24 285.186 312.084 285.186 311.216C285.479 308.902 286.941 307.456 287.819 305.431C288.403 303.696 289.573 302.539 290.158 300.803C290.743 298.779 291.913 297.043 293.96 296.176C294.545 295.886 295.423 295.019 295.423 294.151C295.13 292.994 294.545 292.126 293.376 292.126C291.621 292.126 289.866 292.126 288.696 292.994C286.941 293.862 284.601 293.862 282.846 294.73C282.262 295.019 281.969 295.597 281.384 295.597C279.629 295.597 278.459 297.043 276.997 297.333C275.242 297.911 273.78 299.068 272.025 299.646C268.808 300.514 265.883 302.25 262.666 303.117C261.496 303.407 260.618 303.985 259.449 304.274C257.986 304.853 256.816 305.142 255.354 305.72C253.307 306.588 251.844 308.034 250.382 309.48C249.797 310.059 248.92 310.348 248.335 310.927C247.457 311.794 246.58 312.662 245.41 313.53C243.655 314.687 241.315 315.844 240.145 317.579C239.268 318.736 237.806 319.314 237.513 321.05C237.513 321.339 237.221 321.339 236.928 321.628C235.758 322.785 234.881 323.942 234.003 325.099C233.126 325.967 233.126 327.413 231.956 328.281C230.786 329.148 230.786 331.173 229.324 332.041C229.031 332.041 229.031 332.619 229.324 332.908C229.616 333.487 229.324 333.776 228.739 334.355C227.861 335.222 227.569 336.09 227.569 336.958C227.569 337.536 227.276 338.115 226.984 338.404C225.814 339.85 225.522 341.585 224.644 343.032C223.474 344.767 222.889 346.792 222.597 348.816C222.304 350.841 221.427 352.576 221.135 354.601C220.842 356.047 220.257 357.493 219.965 359.229C219.672 360.386 219.087 361.543 218.502 362.7C217.917 364.146 217.625 365.881 217.04 367.616C216.455 369.063 215.87 370.22 215.578 371.666C214.993 373.112 214.7 374.847 214.115 376.004C213.53 377.161 212.945 378.607 212.36 380.054C211.775 381.789 211.19 383.235 210.313 384.681C210.021 385.549 210.313 386.127 210.021 386.995C208.558 390.466 207.096 394.226 205.926 397.986C205.341 399.721 205.048 401.746 203.879 403.192C203.001 404.06 203.001 405.217 202.709 406.085C202.709 406.374 203.001 406.952 202.709 406.952C201.246 408.688 201.539 410.712 200.661 412.448C200.076 413.315 200.369 414.472 199.784 415.051C199.199 416.208 198.614 417.365 198.322 418.522C198.029 419.679 197.737 421.125 197.152 422.282C196.859 422.86 195.982 423.149 195.982 423.439C196.274 425.174 193.934 426.331 194.812 428.066C193.642 429.223 193.642 430.67 193.057 432.116C192.765 433.273 191.595 434.43 191.595 435.876C191.595 437.322 191.01 438.479 190.425 439.636C188.962 441.95 188.377 444.264 187.793 446.577C187.5 448.024 189.255 450.627 190.425 450.627C192.472 450.337 194.519 450.627 196.567 449.759C197.152 449.47 198.322 449.47 198.614 450.337C198.907 450.916 198.322 451.494 197.737 451.494C195.397 452.362 193.35 453.519 191.595 455.254C189.84 456.99 188.377 459.014 186.623 460.75C185.453 461.907 184.283 463.353 183.113 464.799C181.943 465.956 181.358 467.691 180.188 468.848C177.556 471.162 175.801 474.055 173.754 476.947C172.876 478.393 171.706 479.55 170.537 480.996C168.782 483.021 166.734 484.467 164.98 486.492C163.225 488.516 161.47 490.541 160.008 492.855C158.545 495.169 157.375 497.193 157.083 499.796C156.79 502.4 157.668 504.424 160.3 505.581C162.64 506.738 164.687 508.184 167.319 509.052C167.612 509.052 168.197 509.341 168.197 509.63C168.489 510.209 169.074 510.209 169.659 510.498C171.706 510.787 173.169 511.944 174.924 512.812C177.263 513.969 179.311 515.415 181.651 516.572C182.82 517.151 184.283 517.729 185.16 518.307C187.208 519.754 189.547 520.621 191.887 522.067C192.472 522.357 193.057 522.935 193.642 523.224C195.104 523.803 196.274 524.381 197.737 524.671C198.322 524.671 198.029 525.538 198.907 525.828C201.246 526.117 203.294 527.563 205.341 528.72C206.803 529.588 208.266 530.745 209.728 531.323C213.53 532.769 216.747 535.372 220.55 536.818C222.304 537.397 223.474 538.554 224.937 539.711C226.107 540.578 227.569 540.868 228.739 541.446C230.201 542.025 231.371 543.182 232.833 543.182L233.126 543.471C233.711 544.049 234.296 544.628 234.881 544.628C236.051 544.628 236.928 545.206 237.806 546.074C238.098 546.363 238.39 546.363 238.683 546.363C241.315 546.942 243.363 548.677 245.702 549.834C248.335 551.28 250.674 552.726 253.307 554.172C254.477 554.751 255.939 555.329 257.109 556.197C258.279 557.065 260.034 557.643 261.496 558.511C262.666 559.089 264.128 559.668 265.006 560.825C265.298 561.114 265.591 561.114 265.883 561.114C267.93 561.693 269.978 562.56 271.44 563.717C274.365 565.742 277.582 566.899 280.799 568.634C282.554 569.791 284.601 570.659 286.941 571.527C287.819 571.816 289.573 571.816 290.158 573.262C290.158 573.551 290.743 573.551 291.036 573.84C294.253 574.419 296.3 576.443 298.933 578.179C299.225 578.468 299.517 579.047 299.81 579.047C301.857 579.336 303.32 581.071 305.367 581.65C307.122 582.228 308.877 583.674 310.631 584.253C312.679 585.121 314.726 586.277 316.773 587.145C319.406 588.302 322.33 589.748 324.963 591.484C326.133 592.062 327.01 593.219 328.18 593.508C329.057 593.798 329.642 594.087 330.52 594.376C332.275 595.244 334.029 595.822 336.077 596.401C338.124 596.979 340.756 596.401 342.511 597.847C343.096 598.136 343.681 598.136 344.266 598.136C345.728 597.558 346.898 598.136 348.068 598.715C349.238 599.293 350.408 598.715 351.578 599.004C354.21 600.161 356.842 599.871 359.475 599.871C362.984 600.161 366.201 599.871 369.711 599.871C371.174 599.871 372.343 599.004 373.513 599.004C376.146 598.425 378.778 597.558 381.41 596.69C381.995 596.401 382.872 596.401 383.457 595.822C384.627 594.954 385.797 593.798 387.26 592.93C389.014 591.773 391.354 591.484 392.817 589.748C393.109 589.459 393.402 589.459 393.694 589.17C396.619 588.302 398.959 585.988 400.713 583.964C402.176 582.517 403.346 580.782 404.808 579.336C407.148 577.022 408.903 574.419 411.242 572.394C412.412 571.526 412.412 570.08 412.705 568.923C413.29 567.477 414.167 566.031 415.045 564.874C415.922 563.717 416.214 562.271 416.799 561.114C418.554 558.222 419.432 555.329 421.479 552.726C421.771 552.148 422.356 551.859 422.649 551.28C423.526 548.966 424.696 546.652 425.866 544.339C426.451 542.892 427.036 541.446 427.913 539.711C428.791 537.686 430.253 536.24 431.131 534.215C431.423 533.926 431.131 533.348 431.716 532.769C433.178 531.901 433.47 530.455 434.055 529.009C434.933 527.563 435.225 525.828 436.395 524.092C436.98 522.935 437.273 521.778 438.15 520.621C439.905 518.886 440.782 516.572 441.952 514.547C443.707 511.655 444.877 508.763 446.339 505.87C447.802 502.689 449.556 499.796 451.311 496.904C452.189 495.169 452.774 493.433 453.944 491.698C455.698 488.806 456.576 485.624 458.331 482.442C458.916 480.996 459.793 479.839 460.378 478.393C461.548 475.79 462.718 473.476 464.18 470.873C464.473 470.295 465.058 470.005 465.35 469.138C466.227 466.824 467.69 464.51 468.86 462.196C469.445 460.461 470.615 459.014 471.784 457.568C473.539 455.254 474.417 452.362 475.879 449.759C476.757 448.313 476.757 446.577 477.926 445.131C478.511 444.553 479.096 443.685 479.096 442.817C478.511 439.925 480.559 438.479 481.729 436.454C482.606 435.008 483.483 433.562 483.483 431.826C483.776 430.091 484.361 428.645 485.238 427.199C486.116 426.042 486.408 424.885 486.701 423.728C487.286 421.703 487.578 419.679 488.455 417.654C489.625 414.762 490.21 411.58 490.795 408.688C490.795 408.109 490.503 407.531 490.795 406.952C491.38 405.795 491.673 404.349 491.965 402.903C492.258 401.168 492.55 399.432 492.55 397.697C492.55 395.961 491.965 393.937 492.55 392.201C492.55 391.912 492.843 391.044 492.843 390.466C491.088 390.755 491.088 389.309 491.088 387.863Z" fill="#FFD550"/>
<path d="M433.763 182.507C432.593 182.217 431.716 181.928 430.546 181.639C425.281 180.771 420.602 183.374 415.922 185.11C415.337 185.399 415.045 186.267 414.46 186.845C412.12 189.448 409.78 192.341 408.025 195.522C405.978 199.572 402.468 199.572 400.129 195.811C396.911 190.316 394.864 184.821 394.864 178.457C394.864 172.962 394.279 167.756 395.742 162.26C395.157 157.922 396.911 154.162 398.959 150.402C399.544 149.245 400.129 148.088 399.251 146.642C396.911 146.063 394.572 145.196 392.232 144.328C385.505 142.014 380.24 138.254 377.901 131.023C377.608 130.445 377.316 130.155 377.023 129.577C371.759 131.891 365.909 133.337 360.352 134.783C354.503 136.229 348.653 135.651 342.804 135.072C341.634 135.072 340.172 134.494 339.002 134.205C336.369 133.337 334.322 131.891 333.152 129.577C332.86 128.709 332.567 128.131 331.982 127.263C327.888 128.42 324.086 129.577 319.991 130.445C316.189 131.312 312.387 132.469 308.292 133.337C304.49 134.205 300.395 134.494 296.593 134.783C294.253 142.882 293.668 150.98 292.791 159.079C292.498 161.682 291.913 164.285 290.744 166.888C288.111 172.673 284.894 178.457 282.554 184.531C280.799 188.87 280.215 193.208 280.215 197.547C279.922 209.695 284.602 220.975 286.941 232.544C286.941 232.833 287.234 233.123 287.526 233.412C291.036 241.221 294.546 249.32 298.348 257.129C299.225 259.443 300.688 261.178 303.027 262.335C305.075 263.492 307.122 264.938 309.462 265.517C317.651 268.409 325.84 270.723 334.615 270.145C335.492 270.145 336.369 270.145 337.247 270.145C342.804 270.434 348.068 269.566 353.04 266.963C353.918 266.385 355.088 266.095 355.965 265.806C359.475 264.938 362.4 263.203 365.324 261.468C368.542 259.732 371.759 257.997 374.976 256.551C376.731 255.683 378.193 255.972 379.071 257.129C379.948 258.286 379.071 260.021 377.023 261.178C369.711 264.938 362.692 268.988 355.088 272.458C349.823 275.062 344.266 275.64 338.709 276.219C336.077 276.508 333.445 276.797 330.52 275.929C327.01 275.062 323.501 275.062 319.406 274.483C319.406 279.689 319.113 284.606 319.113 289.523C319.113 294.73 319.113 299.647 319.113 304.853C319.113 309.77 318.529 314.397 319.113 319.314C322.331 319.893 324.963 318.736 327.01 317.29C330.228 314.976 333.737 313.819 337.247 312.373C340.757 311.216 344.266 310.637 347.483 308.902C351.286 307.167 355.088 305.72 358.89 303.407C360.645 302.25 362.692 301.96 364.447 301.093C367.079 299.936 369.419 299.068 372.051 297.911C373.514 297.333 374.976 296.465 376.438 295.886C380.533 294.44 384.628 292.705 388.722 291.259C396.034 288.366 403.346 285.763 410.95 283.739C411.535 283.449 412.12 283.16 413.29 282.582C412.998 277.954 412.705 273.905 412.705 269.855C412.705 267.252 412.705 264.938 412.413 262.335C412.12 259.732 411.828 256.84 411.535 254.237C410.95 247.584 410.658 240.932 410.073 234.28C410.073 232.833 410.073 230.809 408.025 230.23C406.563 229.652 405.393 228.495 406.271 226.76C406.856 225.313 408.61 225.024 410.073 225.024C410.658 225.024 411.535 225.313 412.12 225.313C414.167 225.313 416.215 225.603 417.97 225.024C422.942 223.867 427.621 221.553 431.716 218.661C432.593 217.793 433.471 216.926 434.056 215.769C435.518 213.455 436.688 211.141 438.15 208.827C439.32 206.802 439.905 204.778 440.198 202.753C440.783 196.968 439.613 191.762 437.273 186.267C437.565 184.531 436.103 183.085 433.763 182.507ZM303.32 146.063C302.735 145.196 302.735 144.039 303.612 143.171C306.245 140.279 309.754 139.7 314.141 139.411C315.311 139.7 317.066 139.989 318.821 140.568C319.698 140.857 320.576 141.725 321.161 142.592C322.038 143.749 321.453 145.774 319.698 145.774C318.529 145.774 317.359 146.063 316.481 145.485C313.556 144.328 310.924 144.906 308 146.063C307.415 146.352 306.83 146.642 305.952 146.931C305.075 147.509 303.905 146.931 303.32 146.063ZM317.359 172.962C316.189 174.408 314.434 174.119 312.679 173.83C311.217 173.54 310.632 172.384 310.339 171.227C310.047 170.07 310.047 169.202 310.047 168.045C309.754 165.442 310.924 163.128 312.387 160.814C313.849 158.5 317.066 158.5 318.529 161.103C320.576 164.863 320.283 169.78 317.359 172.962ZM315.896 221.843C312.972 222.999 310.047 222.999 307.707 220.686C305.367 218.372 305.367 215.479 306.245 212.587C306.537 211.43 307.415 210.273 308 209.116C310.339 204.778 312.972 200.728 315.311 196.39C315.604 195.811 315.896 195.522 316.189 194.944C319.698 190.895 321.746 185.688 324.378 181.061C325.255 179.325 325.84 177.3 326.425 175.565C327.888 170.07 329.35 164.285 330.812 158.79C331.105 157.922 331.69 157.054 332.567 157.054C333.445 157.054 334.322 157.922 334.615 158.5C335.2 159.946 335.492 161.393 335.2 162.55C334.03 167.756 332.86 173.251 331.69 178.457C331.397 179.325 331.105 180.193 330.52 180.771C328.18 183.664 326.133 187.134 325.255 190.894C325.255 191.473 324.671 191.762 324.378 192.341C319.991 197.547 317.359 204.199 313.556 209.984C312.387 211.719 311.802 213.455 312.094 216.058C315.019 216.636 317.066 215.479 319.113 214.612C322.623 212.876 326.133 210.852 329.643 208.827C331.69 207.381 333.445 205.645 335.2 203.91C335.784 203.332 335.492 202.753 335.492 201.885C335.492 200.439 336.954 199.282 338.417 199.282C339.879 199.282 341.342 200.439 341.634 201.596C342.511 204.488 341.049 206.513 339.294 208.538C338.124 209.695 336.369 210.852 334.907 211.719C329.35 214.901 323.501 218.082 317.651 221.264C317.359 221.553 316.481 221.553 315.896 221.843ZM362.107 211.43C359.475 216.058 357.428 220.975 352.455 224.156C343.974 229.652 334.907 232.255 324.963 232.255C323.208 232.255 321.453 231.966 319.698 230.809C318.821 230.23 318.236 229.073 318.821 227.916C319.113 227.338 319.991 226.47 320.868 226.47C322.623 226.181 324.378 226.47 325.548 226.47C331.69 227.627 336.662 225.892 341.341 223.867C343.974 222.71 346.606 221.553 348.946 219.818C352.163 217.504 354.795 214.901 356.258 211.43C356.843 210.562 357.428 209.405 358.012 208.827C358.305 208.249 359.475 207.959 360.06 208.249C360.937 208.538 361.522 209.116 361.815 209.984C362.4 210.273 362.4 211.141 362.107 211.43ZM362.985 179.036C361.815 180.482 360.06 180.482 358.597 179.904C357.135 179.325 355.965 178.168 355.965 176.144C355.965 172.673 356.843 169.491 358.89 166.599C360.645 164.285 363.862 164.574 365.324 167.177C365.909 168.623 366.202 170.07 366.494 170.937C366.202 174.408 364.739 177.011 362.985 179.036ZM374.099 157.054C373.221 157.633 372.051 157.633 370.881 157.054C370.296 156.765 369.711 156.186 369.419 155.608C367.079 152.716 364.447 150.402 360.352 150.402C359.767 150.402 359.182 150.112 358.89 149.823C358.305 149.245 357.72 148.377 357.72 147.509C357.72 146.931 358.597 145.774 359.182 145.485C360.06 145.196 360.937 145.196 361.522 145.196C366.787 145.196 373.221 149.534 374.976 153.873C375.268 155.319 374.976 156.186 374.099 157.054ZM436.103 202.464C435.811 204.488 435.226 206.802 433.178 208.249C432.301 208.827 431.423 209.116 430.546 208.538C429.376 207.959 428.791 207.092 429.084 205.935C429.376 205.356 429.669 204.778 429.961 203.91C430.838 201.885 430.838 200.15 429.961 198.125C425.574 197.547 422.064 199.282 419.724 202.753C418.262 205.067 417.385 207.67 416.215 209.984C415.63 211.141 414.752 212.009 413.875 212.876C413.582 213.166 412.413 213.166 411.828 213.166C411.243 212.876 410.95 212.009 410.658 211.43C410.365 211.141 410.658 210.562 410.658 210.273C412.413 203.332 415.337 196.968 422.649 193.787C423.819 193.208 425.281 192.63 426.744 192.63C434.641 192.341 436.688 196.679 436.103 202.464Z" fill="white"/>
<path d="M397.496 294.73C396.911 295.019 396.034 295.308 395.449 295.597C392.524 296.754 389.307 297.911 386.382 299.068C378.778 302.25 371.173 305.142 363.569 308.324C353.625 312.662 343.096 315.844 333.444 320.761C330.52 322.207 327.01 323.074 323.5 324.231C320.868 325.099 318.821 326.256 317.358 328.57C316.188 330.305 315.311 332.33 313.849 335.512C315.896 334.644 316.773 334.355 317.651 334.065C320.283 333.198 321.745 333.487 323.5 335.512C324.085 336.09 324.378 336.958 324.963 337.825C327.01 342.742 329.057 347.949 330.812 352.866C332.274 357.204 333.737 361.543 335.199 365.592C335.784 367.327 336.369 369.063 337.831 370.22C346.313 366.17 353.918 360.675 362.692 357.493C362.984 357.493 363.277 357.204 363.569 356.915C372.051 351.13 381.41 347.081 390.184 341.875C393.109 340.139 396.326 338.404 399.251 336.958C403.638 334.644 408.025 332.33 412.12 330.016C417.384 327.124 422.649 324.231 427.913 321.339C428.791 320.761 429.376 320.471 430.253 319.893C432.008 318.158 434.055 317.29 436.395 316.422C437.857 315.844 439.905 315.554 441.075 313.53C437.857 307.456 435.518 300.803 433.47 294.151C433.178 293.283 432.593 292.126 432.008 291.259C429.083 287.788 426.451 284.028 424.404 279.979C423.526 278.243 422.356 277.086 420.309 276.508C419.724 280.846 419.724 280.846 422.064 285.185C420.602 287.499 418.262 288.077 415.629 288.945C408.903 290.391 402.761 291.548 397.496 294.73Z" fill="white"/>
<path d="M313.849 308.324C313.849 300.225 313.849 292.126 313.849 284.028C313.849 283.739 313.264 283.16 312.679 282.582C309.754 285.185 306.829 287.499 304.49 290.68C300.98 295.597 296.885 300.225 295.13 306.299C294.838 306.877 294.545 307.167 294.253 307.745C292.206 311.794 289.573 315.844 288.111 320.471C286.356 325.678 284.016 330.884 281.677 336.09C281.384 336.379 281.677 336.958 281.677 337.536C286.064 333.776 289.866 330.016 293.961 326.545C296.3 324.521 298.933 323.074 302.442 323.074C305.659 323.074 307.122 324.231 307.999 327.124C308.292 328.57 308.584 329.727 309.169 331.752C312.094 328.57 313.556 325.388 313.849 321.628C314.141 316.711 313.849 312.662 313.849 308.324Z" fill="white"/>
<path d="M466.227 126.106C464.18 118.586 462.132 111.066 459.793 103.546C459.5 102.678 459.208 101.81 458.915 100.943C455.406 94.5796 452.188 87.6379 447.509 81.8533C443.999 77.5148 439.027 74.9116 434.64 71.7301C432.008 69.7054 428.79 68.8377 425.866 67.3916C421.186 65.0777 416.507 63.3423 411.242 63.3423C410.365 63.3423 409.487 63.0531 408.61 62.7638C406.27 62.4746 403.93 62.1853 401.59 62.4746C397.203 62.4746 392.816 63.053 388.722 63.3423C384.919 60.4499 374.683 54.376 371.173 52.6406C368.248 51.4837 365.324 50.9052 362.106 50.0375C349.823 46.8559 337.246 43.9636 324.377 44.2528C323.207 44.2528 321.745 44.2528 320.575 43.9636C315.896 43.3851 311.509 43.6744 306.829 44.2528C299.225 45.1205 292.205 47.4344 287.233 53.7976C284.016 57.8468 284.016 61.8961 287.233 65.9454C288.696 67.97 290.45 69.4162 292.79 70.2839C293.375 70.5731 293.96 71.4408 294.838 72.3085C291.62 73.1762 288.696 74.0439 285.771 74.9116C279.629 76.9363 273.779 79.8286 268.807 84.4564C265.59 87.3487 263.543 90.8195 260.911 94.0011C255.646 100.075 254.476 107.306 255.939 114.826C257.108 121.189 261.496 125.238 267.93 125.238C273.194 125.238 278.459 125.238 283.724 123.792C285.186 123.503 286.356 123.214 287.818 122.635C288.403 124.66 288.403 126.395 288.988 128.131C289.573 129.866 290.743 131.023 291.913 132.469C291.328 135.072 290.743 137.965 290.45 140.568C290.158 143.46 289.865 146.352 289.865 149.245C289.281 154.162 289.281 159.079 287.233 163.707C285.478 167.467 283.724 170.937 281.676 174.408C278.459 179.904 276.997 186.267 275.827 192.341C275.242 196.39 275.534 200.15 275.827 204.199C276.119 209.405 276.997 214.612 278.167 219.818C279.336 225.024 281.384 230.23 283.139 235.147C283.724 236.594 284.016 238.329 284.601 239.775C285.771 242.667 286.648 245.56 288.111 248.452C289.573 251.923 291.62 255.104 293.083 258.575C295.715 265.228 300.979 268.699 307.706 270.434C310.046 271.012 312.093 272.169 314.433 272.748C314.433 274.483 314.433 276.219 314.433 277.665C307.121 279.979 303.612 282.871 299.225 288.945C296.007 293.573 292.79 298.2 290.158 303.117C287.526 308.324 285.478 313.53 283.139 319.025C280.799 324.521 278.167 330.305 275.827 335.801C274.949 338.115 273.779 340.429 272.902 342.742C272.317 344.478 274.364 346.792 276.119 345.924C280.214 343.899 284.893 342.453 288.111 338.404C291.328 334.355 295.422 331.173 299.81 328.57C300.687 327.991 302.149 327.702 303.319 327.413C303.612 328.57 303.904 329.148 303.612 330.016C303.319 332.619 303.319 334.933 303.027 337.536C302.734 339.85 303.319 341.296 305.367 342.742C307.706 344.189 310.046 344.767 312.678 344.478C314.726 342.453 316.773 340.139 319.99 339.272C320.575 339.85 320.868 340.139 321.16 340.718C322.623 345.056 324.377 349.395 325.547 354.023C327.01 359.807 329.349 365.303 331.689 370.798C332.274 372.244 332.859 373.98 333.444 375.426C334.029 376.583 335.491 377.161 336.661 376.583C337.246 376.294 337.831 376.004 338.709 375.715C348.36 370.22 358.012 364.724 367.663 359.518C372.343 356.915 377.023 354.601 381.702 352.287C389.014 348.238 396.033 343.61 403.638 340.139C404.223 339.85 404.515 339.561 405.1 339.272C412.997 333.776 421.479 329.727 429.96 325.388C432.3 324.231 434.932 322.785 436.98 321.339C439.612 319.604 442.537 317.868 445.754 317.001C447.509 316.422 448.094 315.265 447.509 313.53C445.461 309.191 443.414 304.564 441.074 300.514C439.904 298.779 438.735 296.754 438.15 294.73C437.272 292.416 436.395 289.813 434.932 287.788C433.178 285.763 432.008 283.739 431.13 281.425C430.253 279.689 429.375 277.954 428.206 276.219C427.036 274.483 425.866 273.037 423.818 272.459C419.724 271.302 418.554 268.12 418.261 264.649C417.676 260.6 417.384 256.84 417.384 252.791C417.384 251.344 417.676 249.609 417.676 247.874C420.894 247.584 422.941 246.138 425.281 244.692C427.913 242.957 429.96 240.643 431.715 238.04C434.932 233.123 438.15 227.916 441.074 222.71C441.952 221.264 442.829 219.529 443.999 218.083C446.631 215.19 448.679 211.719 450.141 207.959C451.603 204.778 453.066 201.307 455.113 198.125C460.67 188.291 463.302 177.301 465.935 166.31C466.812 163.417 466.812 160.236 467.982 157.343C468.567 155.608 468.567 153.294 468.567 151.559C468.859 144.039 467.982 136.808 467.397 129.288C466.812 128.709 466.52 127.263 466.227 126.106ZM309.169 331.173C308.584 329.438 308.291 327.991 307.999 326.545C307.121 323.364 305.659 322.496 302.442 322.496C299.225 322.496 296.3 323.942 293.96 325.967C289.865 329.438 285.771 333.198 281.676 336.958C281.676 336.379 281.384 335.801 281.676 335.512C284.016 330.305 286.063 325.388 288.111 319.893C289.573 315.554 292.205 311.505 294.253 307.167C294.545 306.588 294.838 306.299 295.13 305.72C296.885 299.647 301.272 295.019 304.489 290.102C306.536 286.92 309.754 284.606 312.678 282.003C313.263 282.871 313.848 283.16 313.848 283.449C313.848 291.548 313.848 299.647 313.848 307.745C313.848 312.084 313.848 316.422 313.556 320.761C313.556 324.81 312.093 327.991 309.169 331.173ZM421.186 284.896C419.139 280.557 419.139 280.557 419.431 276.219C421.479 276.797 422.649 277.954 423.526 279.689C425.573 283.739 428.206 287.499 431.13 290.97C431.715 291.837 432.3 292.705 432.593 293.862C434.64 300.514 436.98 307.167 440.197 313.241C439.32 315.265 437.272 315.554 435.517 316.133C433.47 317.001 431.13 317.868 429.375 319.604C428.79 320.182 427.913 320.761 427.036 321.05C421.771 323.942 416.507 326.835 411.242 329.727C406.855 332.041 402.468 334.355 398.373 336.669C395.448 338.404 392.231 340.139 389.307 341.585C380.532 346.792 371.173 350.552 362.691 356.626C362.399 356.915 362.106 356.915 361.814 357.204C353.04 360.675 345.435 365.881 336.954 369.93C335.491 368.773 334.906 367.038 334.321 365.303C332.859 360.964 331.397 356.626 329.934 352.576C328.18 347.37 326.132 342.453 324.085 337.536C323.792 336.668 323.207 335.801 322.623 335.222C321.16 333.198 319.405 332.908 316.773 333.776C315.896 334.065 315.018 334.355 312.971 335.222C314.433 332.041 315.311 330.016 316.481 328.281C317.943 325.967 319.99 324.81 322.623 323.942C325.84 322.785 329.349 322.207 332.567 320.471C342.218 315.554 352.747 312.373 362.691 308.034C370.296 304.853 377.9 301.96 385.504 298.779C388.429 297.622 391.646 296.465 394.571 295.308C395.156 295.019 396.033 295.019 396.618 294.44C402.175 291.259 408.317 290.102 414.167 288.366C417.384 287.788 419.724 287.209 421.186 284.896ZM441.367 203.042C441.074 205.356 440.489 207.381 439.32 209.116C437.857 211.43 436.687 213.744 435.225 216.058C434.64 217.215 433.763 218.372 432.885 218.95C428.79 222.132 424.111 224.156 419.139 225.313C417.092 225.603 415.044 225.603 413.289 225.603C412.704 225.603 411.827 225.313 411.242 225.313C409.78 225.313 408.025 225.313 407.44 227.049C406.855 228.784 407.732 229.941 409.195 230.52C410.95 231.387 410.95 233.123 411.242 234.569C411.827 241.221 412.12 247.874 412.704 254.526C412.997 257.129 413.289 260.021 413.582 262.625C413.874 265.228 413.582 267.542 413.874 270.145C414.167 274.194 414.167 278.532 414.459 282.871C413.582 283.449 412.997 283.739 412.119 284.028C404.515 286.053 397.203 288.656 389.891 291.548C385.797 292.994 381.702 294.73 377.608 296.176C376.145 296.754 374.683 297.333 373.22 298.2C370.588 299.357 368.248 300.225 365.616 301.382C363.861 302.25 361.814 302.828 360.059 303.696C356.549 305.72 352.455 307.456 348.653 309.191C345.435 310.637 341.633 311.505 338.416 312.662C334.614 313.819 331.104 315.265 328.18 317.579C325.84 319.314 323.5 320.182 320.283 319.604C319.405 314.687 320.283 310.059 320.283 305.142C320.283 299.936 320.283 295.019 320.283 289.813C320.283 284.896 320.575 279.979 320.575 274.772C324.377 275.351 328.18 275.351 331.689 276.219C334.321 277.086 336.954 276.797 339.878 276.508C345.435 275.929 351.285 275.351 356.257 272.748C363.569 269.277 370.881 265.228 378.193 261.468C380.24 260.311 380.825 258.575 380.24 257.418C379.655 256.551 378.193 255.972 376.145 256.84C372.928 258.286 369.418 260.021 366.494 261.757C363.569 263.492 360.644 265.517 357.134 266.095C355.965 266.385 355.087 266.674 354.21 267.252C349.238 270.145 343.973 270.723 338.416 270.434C337.539 270.434 336.661 270.434 335.784 270.434C327.01 271.012 318.82 268.699 310.631 265.806C308.291 264.938 306.244 263.782 304.197 262.625C302.149 261.468 300.687 259.732 299.517 257.418C296.007 249.609 292.498 241.51 288.696 233.701C288.403 233.412 288.403 233.123 288.111 232.833C285.771 221.264 281.091 209.984 281.384 197.836C281.384 193.208 282.261 189.159 283.724 184.821C286.063 178.747 289.281 172.962 291.913 167.177C293.083 164.574 293.668 162.26 293.96 159.368C294.838 151.269 295.423 143.171 297.762 135.072C301.564 134.494 305.659 134.205 309.461 133.626C313.263 132.758 317.358 131.891 321.16 130.734C324.962 129.866 328.764 128.709 333.152 127.552C333.444 128.131 333.737 128.998 334.321 129.866C335.491 132.18 337.539 133.915 340.171 134.494C341.341 134.783 342.511 135.362 343.973 135.362C349.823 135.94 355.672 136.519 361.522 135.072C367.079 133.626 372.636 132.18 378.193 129.866C378.485 130.445 379.07 130.734 379.07 131.312C381.41 138.254 386.674 142.014 393.401 144.617C395.741 145.485 398.373 146.063 400.421 146.931C401.298 148.377 400.421 149.534 400.128 150.691C398.373 154.451 396.326 158.211 396.911 162.55C395.448 167.756 396.033 173.251 396.033 178.747C396.033 185.11 398.081 190.895 401.298 196.101C403.638 199.861 407.147 199.861 409.195 195.811C410.95 192.63 413.289 189.738 415.629 187.134C416.214 186.556 416.507 185.688 417.092 185.399C421.771 183.664 426.451 181.061 431.715 181.928C432.885 182.217 433.763 182.507 434.932 182.796C437.272 183.374 439.027 184.531 439.904 186.845C440.782 191.762 441.952 197.258 441.367 203.042Z" fill="black"/>
<path d="M339.294 208.249C341.049 206.513 342.219 204.199 341.634 201.307C341.341 199.861 339.879 198.993 338.416 198.993C336.954 198.993 335.492 200.15 335.492 201.596C335.492 202.175 336.077 203.042 335.199 203.621C333.444 205.356 331.689 207.381 329.642 208.538C326.425 210.562 322.623 212.587 319.113 214.322C317.066 215.479 314.726 216.347 312.094 215.769C311.801 213.455 312.386 211.43 313.556 209.695C317.358 203.91 319.698 197.547 324.378 192.051C324.67 191.762 324.963 191.184 325.255 190.605C326.132 186.845 328.18 183.664 330.52 180.482C331.105 179.904 331.397 179.036 331.689 178.168C332.859 172.962 334.322 167.756 335.199 162.26C335.492 160.814 335.199 159.368 334.614 158.211C334.322 157.633 333.444 156.765 332.567 156.765C331.689 156.765 331.105 157.343 330.812 158.5C329.35 163.996 327.887 169.78 326.425 175.276C325.84 177.301 325.255 179.036 324.378 180.771C321.745 185.399 319.698 190.605 316.188 194.655C315.896 194.944 315.603 195.522 315.311 196.101C312.971 200.439 310.339 204.489 307.999 208.827C307.414 209.984 306.537 210.852 306.244 212.298C305.367 215.19 305.367 218.083 307.707 220.396C310.046 222.71 312.971 222.999 315.896 221.553C316.481 221.264 317.358 220.975 317.943 220.686C323.793 217.504 329.35 214.322 335.199 211.141C336.662 210.562 338.124 209.405 339.294 208.249Z" fill="black"/>
<path d="M360.352 208.249C359.767 207.959 358.89 208.538 358.305 208.827C357.427 209.695 357.135 210.562 356.55 211.43C354.795 214.901 352.455 217.793 349.238 219.818C346.898 221.553 344.266 222.71 341.634 223.867C336.954 225.892 331.982 227.627 325.84 226.47C324.963 226.47 323.208 226.47 321.16 226.47C320.283 226.47 319.406 227.338 319.113 227.916C318.528 229.073 319.113 229.941 319.991 230.809C321.453 231.966 323.208 232.255 325.255 232.255C335.199 232.255 344.266 229.652 352.748 224.156C357.72 220.975 359.767 216.058 362.399 211.43C362.692 211.141 362.692 210.273 362.399 209.984C361.522 209.116 360.937 208.538 360.352 208.249Z" fill="black"/>
<path d="M427.036 192.63C425.573 192.63 424.111 193.208 422.941 193.787C415.922 196.968 412.997 203.332 410.95 210.273C410.95 210.562 410.95 211.141 410.95 211.43C411.242 212.009 411.535 212.876 412.12 213.165C412.705 213.455 413.582 213.455 414.167 212.876C415.044 212.009 415.922 211.141 416.507 209.984C417.677 207.67 418.554 204.778 420.016 202.753C422.356 199.282 425.866 197.547 430.253 198.125C431.13 200.15 431.13 202.175 430.253 203.91C429.961 204.488 429.376 205.067 429.376 205.935C429.083 207.092 429.668 207.959 430.838 208.538C431.715 208.827 432.593 208.827 433.47 208.249C435.225 206.802 436.102 204.488 436.395 202.464C436.687 196.679 434.64 192.341 427.036 192.63Z" fill="black"/>
<path d="M358.597 166.599C356.55 169.491 355.673 172.673 355.673 176.144C355.673 177.879 356.843 179.325 358.305 179.904C360.06 180.482 361.815 180.482 362.692 179.036C364.447 177.011 365.909 174.697 365.909 170.937C365.617 170.07 365.324 168.624 364.739 167.177C363.569 164.574 360.352 164.285 358.597 166.599Z" fill="black"/>
<path d="M312.386 161.103C311.216 163.128 310.046 165.442 310.046 168.334C310.046 169.491 310.046 170.648 310.339 171.516C310.631 172.673 311.216 173.83 312.679 174.119C314.433 174.408 315.896 174.408 317.358 173.251C320.283 170.07 320.575 165.153 318.528 161.682C317.066 158.79 313.849 158.5 312.386 161.103Z" fill="black"/>
<path d="M361.522 145.485C360.937 145.485 360.06 145.485 359.182 145.774C358.597 146.063 357.72 146.931 357.72 147.799C357.72 148.377 358.305 149.245 358.89 150.112C359.182 150.402 359.767 150.691 360.352 150.691C364.447 150.402 367.079 153.005 369.419 155.897C370.004 156.476 370.296 157.054 370.881 157.343C371.758 157.922 372.928 157.922 374.098 157.343C375.268 156.476 375.268 155.608 374.683 154.451C373.221 149.823 366.786 145.485 361.522 145.485Z" fill="black"/>
<path d="M308 146.352C310.632 144.906 313.264 144.617 316.481 145.774C317.359 146.063 318.529 146.063 319.699 146.063C321.161 145.774 322.038 144.039 321.161 142.882C320.576 142.014 319.699 141.146 318.821 140.857C317.066 140.279 315.311 139.989 314.142 139.7C309.754 139.989 306.245 140.568 303.613 143.46C302.735 144.328 302.735 145.485 303.32 146.352C303.905 147.22 305.075 147.799 306.245 147.509C306.83 146.931 307.415 146.642 308 146.352Z" fill="black"/>
<path d="M193.642 454.676C189.255 453.519 184.868 452.073 180.481 450.916C176.678 449.759 172.584 448.602 168.489 448.024C164.395 447.445 160.3 447.156 156.205 448.313C154.158 448.891 152.403 449.47 150.648 450.627C149.186 451.494 148.016 452.362 146.261 452.362C144.506 452.362 142.459 451.784 140.704 451.784C138.657 451.784 136.61 452.651 135.147 454.097C134.562 454.676 133.977 455.254 133.685 455.833C133.392 456.122 133.1 456.411 133.1 456.701L132.515 457.279C131.345 458.147 129.005 457.858 127.543 458.436C123.741 459.304 120.523 461.618 118.184 464.51C117.014 465.956 116.429 467.402 115.551 469.138C115.259 469.427 115.259 469.716 114.966 470.005C114.674 470.005 113.504 470.005 112.919 470.005C108.24 470.584 105.607 474.633 103.852 478.682C102.098 483.31 100.343 487.938 98.8804 492.566C98.2955 494.59 100.05 496.904 102.098 496.615C119.646 496.326 137.487 496.036 155.035 495.747C155.62 495.747 156.205 495.458 156.498 495.458C157.375 495.458 158.253 495.169 159.13 494.59C164.102 489.384 168.782 484.178 173.461 478.682C173.754 478.393 173.754 478.393 174.046 478.104C176.678 476.079 179.018 473.765 181.358 471.452C182.235 470.584 183.113 470.005 183.99 469.138C186.623 466.535 189.255 463.931 191.01 460.461C191.01 460.461 191.01 460.461 191.01 460.171C191.302 460.171 191.302 460.171 191.595 460.461C195.982 461.907 197.736 455.833 193.642 454.676Z" fill="white"/>
<path d="M387.259 393.937C386.382 393.648 384.92 393.937 384.627 395.094C384.335 395.961 384.042 396.829 383.75 397.697C379.363 411.002 374.976 424.017 370.588 437.322C370.004 438.768 369.711 439.925 369.126 441.371C366.201 447.734 365.031 454.387 362.399 460.75C362.399 461.039 362.399 461.039 362.399 461.328C360.937 467.113 359.474 472.898 356.842 478.393C355.672 480.996 355.087 483.599 354.21 486.202C353.917 487.07 353.625 488.227 353.04 489.384C351.87 489.384 350.993 489.384 350.115 489.384C348.945 489.673 348.068 489.963 347.191 490.252C346.898 489.963 346.606 489.673 346.313 489.384C342.511 487.07 340.464 487.359 338.124 491.119C337.246 492.566 336.369 494.301 335.199 496.036C334.322 494.879 334.029 494.012 333.444 493.433C332.859 492.566 332.567 491.698 331.982 491.119C330.227 488.227 328.765 487.649 325.548 488.516C324.378 488.806 322.915 489.095 321.745 489.673C319.113 491.119 316.773 490.541 314.434 489.095C306.244 484.756 298.055 480.418 289.866 476.079C283.724 472.898 277.582 469.716 271.44 466.245C265.59 463.064 260.033 459.593 253.891 456.99C251.259 456.122 249.212 454.387 246.287 452.651C246.872 449.759 247.165 447.156 247.75 444.842C249.797 435.587 251.844 426.042 253.599 416.786C255.354 407.242 257.401 397.697 259.741 388.152C260.911 384.392 261.788 380.343 261.203 376.294C261.203 375.426 260.326 374.558 259.741 374.269C258.571 373.69 257.401 374.269 256.816 375.137C255.939 377.161 255.354 379.186 254.769 381.211C254.184 383.524 254.476 385.838 253.891 388.152C252.137 396.54 250.382 404.638 248.334 413.026C245.995 423.149 243.362 433.273 241.608 443.685C241.315 445.42 240.73 447.156 240.145 449.181C238.975 448.891 238.098 448.602 237.513 448.024C233.418 445.71 229.324 443.396 224.937 441.371C222.304 439.925 219.38 439.347 216.455 440.214C212.653 441.66 208.851 442.817 205.633 445.131C202.416 447.445 199.199 449.759 195.982 452.073C195.397 451.784 194.812 451.784 194.227 451.494C189.547 449.181 184.575 448.024 179.603 447.445C176.678 447.156 173.754 446.288 170.829 445.999C166.442 445.42 162.347 444.264 157.668 444.264C154.45 444.264 151.818 444.842 150.063 447.445C148.893 449.18 147.431 449.47 145.384 449.47C143.044 449.18 140.704 449.47 138.364 449.47C135.147 449.47 132.807 450.916 130.76 452.941C129.883 453.808 129.298 454.965 128.42 455.833C126.958 455.544 125.788 455.544 124.618 455.254C121.986 454.965 119.354 455.544 117.599 457.858C114.966 461.328 112.627 464.799 109.994 468.848C105.607 468.559 103.268 471.741 101.513 475.501C100.635 477.236 99.7579 478.972 99.1729 480.996C97.4181 485.913 95.3707 490.83 93.9084 495.747C93.031 498.061 93.9084 499.796 96.5406 500.375C98.8804 500.953 101.513 500.953 104.145 500.953C107.362 500.953 110.579 500.664 114.089 500.664C114.966 500.664 115.844 500.953 116.721 500.664C121.401 499.507 126.08 500.086 130.76 499.796C136.317 499.507 142.167 500.375 147.724 498.929C148.893 498.64 150.356 498.929 151.526 498.929C154.158 498.929 156.498 498.929 159.13 498.64C160.3 498.64 161.177 497.772 161.177 496.615C161.177 495.458 160.592 494.301 159.422 494.301C157.96 494.012 156.498 494.012 155.035 494.012C151.526 494.59 147.724 494.879 144.214 494.012C143.629 493.723 142.751 494.012 142.167 494.012C131.637 494.59 121.108 495.169 110.287 495.458C107.07 495.458 104.145 495.169 101.22 495.169C100.928 494.59 100.928 494.59 100.928 494.301C101.513 488.516 103.56 483.021 106.192 478.104C107.947 474.922 110.579 473.187 114.382 473.765C114.966 473.765 115.551 473.765 116.136 473.765C117.306 473.765 118.769 473.765 119.061 472.03C119.354 470.584 117.891 470.584 117.014 469.716C116.721 469.427 116.721 469.138 116.429 468.559C117.599 467.113 118.476 465.378 119.939 463.931C121.108 462.485 122.571 461.618 124.618 461.618C126.958 461.618 129.298 461.039 131.637 460.75C132.807 460.461 133.685 460.171 134.27 459.014C135.44 455.833 138.072 454.676 140.997 454.387C143.629 454.387 146.554 454.676 149.186 454.676C150.941 454.676 152.696 454.676 153.573 452.941C154.743 450.627 156.79 450.627 159.13 450.627C165.272 450.627 171.121 452.073 176.971 452.941C179.896 453.519 183.113 454.097 186.038 454.965C188.67 455.544 191.01 456.122 193.642 456.701C195.397 456.99 196.859 456.701 198.321 455.833C201.831 453.519 205.341 451.494 209.143 449.47C210.898 448.313 212.653 447.445 214.408 446.577C216.455 445.71 219.087 444.553 221.427 445.999C227.861 449.759 235.173 452.073 240.73 456.99C241.023 457.279 241.608 457.568 242.193 457.858C248.042 459.593 253.599 462.485 258.864 465.667C265.883 470.005 273.487 472.898 280.507 477.236C284.894 479.839 289.573 481.864 293.96 484.467C300.102 487.938 305.952 491.119 312.094 494.88C313.849 495.747 315.311 496.036 317.358 495.747C320.283 495.169 323.5 494.879 326.717 494.301C328.765 497.483 330.52 500.664 332.567 503.846C332.274 504.424 331.982 505.292 331.689 506.16C329.057 509.92 327.887 514.258 326.425 518.597C326.132 519.175 326.132 520.043 326.132 520.621C326.132 520.911 326.425 521.489 326.717 521.489C327.302 521.489 327.887 521.778 328.18 521.489C328.765 521.2 329.35 520.621 329.642 520.043C332.859 514.547 336.369 509.341 337.831 502.978C338.416 500.375 339.586 498.061 341.926 495.747C342.511 497.483 343.681 498.929 343.388 500.086C342.803 504.424 342.219 509.052 341.341 513.39C341.049 515.994 340.464 518.886 340.464 521.489C340.464 524.671 341.926 526.406 345.143 527.563C347.483 528.431 349.53 528.141 350.993 526.117C352.163 524.671 353.333 522.935 354.502 521.2C356.55 518.597 357.72 515.415 358.012 512.234C358.305 507.895 358.012 503.557 356.55 499.507C355.965 497.483 355.965 495.747 356.55 493.723C360.644 481.864 364.447 469.716 368.541 457.568C368.834 456.411 369.126 454.965 369.711 454.097C373.806 445.42 375.853 435.876 379.07 426.909C381.118 421.414 382.287 415.34 384.335 409.845C385.505 406.952 386.382 404.06 387.259 401.168C387.552 400.011 388.137 398.854 388.137 397.408C389.014 395.383 388.137 394.515 387.259 393.937ZM351.578 518.307C351.285 519.175 350.408 520.332 349.53 520.911C348.945 521.489 347.776 521.778 347.191 521.489C346.606 521.2 346.021 520.043 346.021 519.464C346.021 518.307 346.313 517.44 346.606 516.283C347.191 512.234 348.068 508.184 348.653 504.135C348.945 501.821 348.945 501.821 350.993 498.35C354.502 505.292 354.21 511.655 351.578 518.307Z" fill="black"/>
<path d="M355.38 77.804C348.361 76.0686 341.049 75.2009 333.737 75.7794C328.473 76.0686 323.208 76.6471 317.944 77.2255C316.189 77.5148 314.434 77.804 312.679 78.0932C304.197 80.6963 296.008 83.8779 288.404 88.2164C288.111 88.5057 287.526 88.7949 287.234 88.7949C286.064 89.3734 284.602 90.2411 284.017 91.6872C284.894 91.398 286.064 91.398 286.941 90.8195C291.621 88.5057 296.3 87.0595 301.273 85.9026C305.952 84.7456 310.632 83.8779 315.019 82.721C327.303 79.8286 339.587 78.9609 351.87 80.6963C353.625 80.9856 355.38 81.564 357.135 80.4071C357.72 78.9609 356.55 78.3825 355.38 77.804Z" fill="white"/>
<path d="M319.698 92.555C317.358 93.7119 315.019 94.5796 312.679 95.7365C308.292 98.0504 304.782 101.232 300.103 104.703C303.905 104.414 306.537 103.546 308.877 102.678C314.141 100.654 319.406 98.6289 324.67 96.6042C328.765 94.8688 332.86 93.7119 337.247 93.7119C339.879 93.7119 342.511 93.1334 345.728 91.9765C342.511 89.6626 342.511 89.6626 341.341 89.3734C334.029 88.7949 326.718 89.3734 319.698 92.555Z" fill="white"/>
<path d="M434.348 131.023C434.056 130.445 433.471 129.577 432.886 129.577C432.301 129.288 431.131 129.577 431.131 130.155C430.839 131.023 430.839 131.891 431.131 132.758C431.716 135.651 432.301 138.254 432.886 141.146C434.056 146.642 434.348 152.137 432.594 157.633C432.009 159.657 431.716 161.393 432.009 163.996C434.348 162.839 435.226 161.393 436.103 159.657C438.151 155.897 438.443 152.137 438.443 148.088C438.736 142.014 437.566 136.229 434.348 131.023Z" fill="white"/>
<path d="M451.897 144.328C449.849 144.906 449.849 146.352 449.557 147.799C449.264 152.716 448.972 157.633 447.802 162.26C447.51 163.996 447.509 166.02 448.094 168.334C450.434 167.177 451.897 166.02 452.482 163.996C454.529 158.211 455.114 152.426 453.359 146.352C453.066 145.774 452.189 144.906 451.897 144.328Z" fill="white"/>
<path d="M418.847 159.946C418.262 159.946 417.677 160.525 417.092 161.103C416.8 161.393 416.8 161.682 416.8 161.971C416.215 164.863 415.337 167.756 414.752 170.937C414.46 172.094 414.46 173.251 414.167 175.565C418.555 172.673 419.14 171.805 420.017 168.913C420.894 166.31 420.894 163.706 420.017 161.103C419.724 160.525 419.14 159.946 418.847 159.946Z" fill="white"/>
</svg>
